<svg width="64" height="64" viewBox="0 0 64 64" xmlns="http://www.w3.org/2000/svg">
  <defs>
    <linearGradient id="bg" x1="0%" y1="0%" x2="100%" y2="100%">
      <stop offset="0%" style="stop-color:#1e3a8a;stop-opacity:1" />
      <stop offset="100%" style="stop-color:#3b82f6;stop-opacity:1" />
    </linearGradient>
    <linearGradient id="skin" x1="0%" y1="0%" x2="100%" y2="100%">
      <stop offset="0%" style="stop-color:#d2691e;stop-opacity:1" />
      <stop offset="100%" style="stop-color:#8b4513;stop-opacity:1" />
    </linearGradient>
  </defs>
  
  <!-- Background circle -->
  <circle cx="32" cy="32" r="30" fill="url(#bg)" stroke="#1e40af" stroke-width="2"/>
  
  <!-- Head -->
  <ellipse cx="32" cy="28" rx="12" ry="14" fill="url(#skin)"/>
  
  <!-- Headband with Haitian flag -->
  <rect x="20" y="18" width="24" height="6" fill="#002868" rx="3"/>
  <rect x="20" y="21" width="24" height="3" fill="#ce1126"/>
  
  <!-- Flag emblem -->
  <rect x="29" y="19" width="6" height="4" fill="white"/>
  <polygon points="30,20 31,21 33,21 34,20 33,22 31,22" fill="#228b22"/>
  
  <!-- Hair -->
  <path d="M20 20 Q32 15 44 20 Q44 25 32 22 Q20 25 20 20" fill="#2c1810"/>
  
  <!-- Glasses -->
  <circle cx="28" cy="28" r="4" fill="none" stroke="#333" stroke-width="2"/>
  <circle cx="36" cy="28" r="4" fill="none" stroke="#333" stroke-width="2"/>
  <line x1="32" y1="28" x2="32" y2="28" stroke="#333" stroke-width="2"/>
  
  <!-- Eyes -->
  <circle cx="28" cy="28" r="2" fill="white"/>
  <circle cx="36" cy="28" r="2" fill="white"/>
  <circle cx="28" cy="28" r="1" fill="#333"/>
  <circle cx="36" cy="28" r="1" fill="#333"/>
  
  <!-- Nose -->
  <ellipse cx="32" cy="32" rx="1" ry="2" fill="#a0522d"/>
  
  <!-- Mouth -->
  <path d="M29 36 Q32 38 35 36" fill="none" stroke="#333" stroke-width="1.5"/>
  
  <!-- Laptop -->
  <rect x="24" y="45" width="16" height="10" fill="#2d3748" rx="1"/>
  <rect x="25" y="46" width="14" height="8" fill="#1a202c"/>
  <circle cx="32" cy="50" r="1" fill="#4a5568"/>
  
  <!-- Tech elements -->
  <circle cx="12" cy="16" r="1" fill="#10b981" opacity="0.8"/>
  <circle cx="52" cy="20" r="1" fill="#10b981" opacity="0.8"/>
  <circle cx="16" cy="48" r="1" fill="#f59e0b" opacity="0.8"/>
  <circle cx="48" cy="44" r="1" fill="#f59e0b" opacity="0.8"/>
</svg>